<svg xmlns="http://www.w3.org/2000/svg" viewBox="0 0 1024 1024"><g stroke-width=".892"><path fill="#f6b247" d="M315.047 855.33c-27.042-2.614-54.005-11.921-76.185-26.296-13.737-8.903-33.755-29.322-41.151-41.974-10.143-17.35-15.008-30.622-19.306-52.662-2.334-11.97-3.609-172.381-2.573-323.815.79-115.386.866-118.47 3.224-129.127 6.261-28.294 18.279-50.414 38.209-70.33 21.485-21.47 47.17-34.98 81.253-42.737l11.205-2.55 192.72-.378c195.642-.383 207.532-.186 226.604 3.753 29.361 6.063 56.664 20.964 78.811 43.011 18.284 18.202 28.178 34.71 35.08 58.53 5.597 19.311 5.49 14.604 5.462 240.67-.023 188.332-.226 213.533-1.799 222.987-5.759 34.618-19.405 60.05-43.746 81.53-26.248 23.162-57.813 36.052-96.487 39.4-15.961 1.382-377.02 1.371-391.321-.011z"/><path fill="#678774" d="m175.779 663.263.398 24.005c.648 39.036 1.176 44.766 5.828 63.376 2.532 10.134 8.694 24.42 15.706 36.416 7.396 12.651 27.414 33.07 41.15 41.973 22.18 14.375 49.145 23.682 76.186 26.296v.003c14.301 1.382 375.36 1.393 391.321.01 38.674-3.347 70.24-16.237 96.488-39.4 19.372-17.094 32.2-37.15 39.188-61.262 5.592-19.3 6.055-25.73 6.06-84.291 0-3.84-.044-3.8-.047-7.125z"/><path fill="#252e28" d="M176.546 704.43c-.382-2.314-.7-15.885-.707-30.16l-.012-25.954 17.647-16.058c29.27-26.635 76.498-73.91 100.564-100.665 32.295-35.901 63.903-72.874 162.842-190.48 48.252-57.354 47.51-56.53 53.404-59.383 9.264-4.485 21.402-2.907 30.392 3.95 1.99 1.518 10.61 11.712 19.154 22.654 36.766 47.085 100.849 131.586 101.972 134.462.874 2.237 2.285 1.736 12.128-4.3 11.202-6.87 15.795-8.13 23.778-6.523 7.62 1.533 13.884 6.325 20.986 16.055 9.854 13.502 81.74 109.499 90.264 120.54 13.67 17.706 30.26 38.373 34.834 43.394l4.316 4.737v91.914l-335.433.011-335.433.011z"/><path fill="#252e28" d="M802.521 857.194c-4.958-2.245-7.456-7.51-6.8-14.333.709-7.383 3.828-10.544 11.92-12.08 20.143-3.821 28.208-7.357 38.74-16.982 11.058-10.107 17.68-22.264 21.536-39.534 1.535-6.88 1.743-18.643 1.562-88.607-.227-88.052.123-94.905 5.759-112.607 6.783-21.305 17.079-36.535 33.547-49.622 6.92-5.5 23.444-14.245 26.915-14.245 3.794 0 1.167-1.98-9.651-7.278-17.81-8.721-29.415-18.803-39.384-34.213-6.981-10.792-10.278-18.637-13.64-32.46l-2.86-11.765-.73-85.716c-.813-95.75-.387-90.673-9.086-108.441-2.887-5.898-6.984-11.89-11.241-16.441-11.18-11.951-21.905-17.571-37.731-19.773-4.724-.657-9.479-1.67-10.568-2.254-4.942-2.644-6.889-12.72-3.664-18.956 3.46-6.692 4.895-6.9 44.064-6.39 39.947.521 41.544.77 59.062 9.216 27.449 13.232 45.334 36.252 52.677 67.8 1.735 7.456 2.038 18.314 2.687 96.36.706 84.75.818 88.263 3.086 96.36 3.134 11.19 6.061 17.75 11.377 25.499 9.182 13.386 20.388 21.843 35.312 26.648 14.143 4.555 15.248 5.106 16.983 8.46 2.04 3.947 2.173 20.606.195 24.515-1.693 3.345-4.54 4.842-14.814 7.793-18.943 5.441-35.652 20.52-44.15 39.844-1.351 3.073-3.537 9.375-4.858 14.006-2.336 8.187-2.423 10.934-3.147 99.178-.51 62.004-1.155 92.533-2.037 96.36-5.138 22.284-14.487 39.54-28.874 53.291-13.112 12.533-26.47 20.117-43.547 24.723-8.007 2.16-12.49 2.463-42.017 2.839-27.069.345-33.7.128-36.623-1.195zM150.616 857.136c-32.102-5.06-59.13-25.948-71.952-55.607-2.024-4.681-4.789-12.499-6.143-17.373-2.415-8.688-2.477-10.653-3.174-100.74-.69-89.238-.78-92.119-3.097-100.281-7.839-27.602-26.04-47.266-50.873-54.959C.534 523.578-.404 522.328.097 507.813c.342-9.922.63-11.15 3.178-13.581 1.572-1.501 6.978-3.949 12.325-5.58 20.853-6.362 36.117-19.531 45.473-39.233 7.612-16.028 7.475-14.168 8.293-112.787.716-86.33.813-89.36 3.15-98.274 7.91-30.162 25.333-51.67 51.97-64.152 17.637-8.265 23.976-9.146 63.1-8.772l34.132.327 3.03 3.031c2.44 2.44 3.124 4.323 3.509 9.649.437 6.045.202 6.92-2.726 10.13-2.768 3.036-4.35 3.67-11.608 4.658-17.28 2.351-28.217 7.909-39.429 20.036-8.028 8.684-13.039 17.955-16.721 30.94-2.506 8.836-2.548 10.082-3.292 95.788-.822 94.826-.65 92.352-7.67 110.429-9.318 23.997-26.796 41.895-51.937 53.183-4.775 2.144-8.683 4.214-8.684 4.599 0 .385 1.386.99 3.08 1.346 4.58.961 19.47 9.822 27.633 16.445 17.242 13.99 30.89 37.258 35.57 60.642.752 3.76 1.51 39.257 2.018 94.539.91 98.901.688 96.105 8.983 113.242 9.996 20.652 25.033 31.415 49.305 35.291 7.038 1.124 8.966 1.925 12.045 5.004 3.088 3.088 3.665 4.484 3.665 8.875 0 6.738-2.31 11.066-7.123 13.35-3.285 1.559-8.18 1.816-32.823 1.721-17.24-.066-32.591-.682-37.927-1.523z"/><path fill="#fae8bb" d="M395.011 310.163c5.047-2.395 8.442-7.343 9.11-13.277.753-6.677-1.329-12.085-6.425-16.69-7.316-6.609-17.533-8.05-28.858-4.07-3.507 1.233-6.455 2.242-6.551 2.242-.097 0-.506-2.063-.91-4.585-1.514-9.475-10.042-21.225-18.6-25.63-5.749-2.96-16.292-4.847-22.263-3.986-6.34.915-15.203 4.824-19.848 8.753-4.16 3.52-9.871 13.897-11.742 21.336-1.201 4.772-1.641 5.321-3.727 4.643-1.301-.422-5.747-1.023-9.88-1.334-8.7-.655-15.622 1.936-20.427 7.646-6.494 7.718-4.14 19.395 4.868 24.16l4.938 2.61h63.241c56.028 0 63.678-.207 67.074-1.818zM800.73 353.809c5.867-2.784 8.38-7.494 7.847-14.702-.512-6.934-3.042-10.888-9.315-14.563-3.698-2.167-5.592-2.498-12.22-2.14-4.314.233-8.604.764-9.535 1.18-1.312.586-2.003-.556-3.079-5.085-5.553-23.375-36.824-33.729-54.967-18.2-5.054 4.326-11.412 15.929-11.412 20.825 0 3.729.268 3.648-4.932 1.476-2.247-.939-7.117-1.75-10.823-1.802-5.51-.077-7.556.446-11.222 2.872-6.834 4.523-9.084 8.873-8.588 16.605.338 5.273 1.011 7.075 3.703 9.92 1.81 1.912 4.299 3.897 5.531 4.41 1.233.513 27.627.965 58.655 1.004 50.471.064 56.83-.126 60.358-1.8zM295.74 453.71c6.51-3.368 7.531-10.653 2.31-16.498-3.04-3.406-3.76-3.659-10.363-3.65-3.903.011-7.979.437-9.057.96-1.554.754-1.961.452-1.961-1.454 0-6.8-9.187-17.313-16.294-18.646-10.41-1.953-19.041 2.239-23.59 11.456l-2.848 5.77-4-1.104c-7.858-2.17-16.326 1.807-19.34 9.082-1.944 4.696.227 10.803 4.842 13.617 3.286 2.004 6.02 2.15 40.277 2.155 30.594 0 37.299-.28 40.023-1.689z"/><path fill="#55685c" d="M767.774 602.726c-.351-3.603-41.27-79.724-65.642-122.114-7.102-12.353-12.117-19.611-13.52-19.568-.71.02-6.334 4.068-12.496 8.992-6.163 4.924-12.84 10.074-14.839 11.445-1.998 1.371-3.637 3.114-3.641 3.874-.005.76 6.192 10.844 13.769 22.41 7.577 11.565 18.633 28.59 24.569 37.834l10.792 16.807 18.289 14.643c17.484 13.997 24.108 18.998 33.923 25.609 5.12 3.449 9.13 3.48 8.796.068zM227.917 681.688c14.18-3.108 34.102-7.466 44.27-9.684 10.168-2.218 20.505-5.04 22.97-6.27 6.621-3.305 26.36-18.292 50.247-38.152 11.613-9.656 21.788-17.556 22.61-17.556 2.624 0 5.016 3.41 4.971 7.083-.024 1.959-.973 8.1-2.11 13.646-1.96 9.57-2.05 12.515-.306 10.028 1.217-1.735 33.631-31.959 53.167-49.574 9.71-8.754 18.563-15.917 19.675-15.917 1.11 0 2.99.709 4.175 1.576 1.962 1.434 2.032 2.037.783 6.707-.755 2.822-4.905 14.715-9.224 26.428-4.318 11.714-7.852 21.839-7.852 22.5 0 3.435 23.481-8.925 28.585-15.046 5.298-6.353 11.135-13.603 37.226-46.236 20.498-25.639 26.02-31.784 28.558-31.784.48 0 1.88 1.008 3.112 2.24 4.926 4.926 3.462 10.33-26.75 98.76-6.24 18.267-11.346 33.544-11.346 33.95 0 1.566 40.537-21.782 54.903-31.623 11.115-7.614 24.829-18.456 28.438-22.483 1.554-1.734 1.92-3.282 1.397-5.903-1.595-7.97 4.944-8.817 14.135-1.83 3.445 2.618 12.23 9.615 19.523 15.548 19.14 15.57 25.865 19.857 66.754 42.546 4.156 2.306 9.351 4.785 11.545 5.51 4.644 1.532 9.471.66 9.471-1.71 0-2.283-15.794-21.63-55.333-67.777-15.172-17.708-56.503-68.054-57.647-70.22-.821-1.556-3.461-12.234-5.867-23.729-2.405-11.494-5.996-27.368-7.979-35.275-3.245-12.938-3.919-14.537-6.738-15.995-1.723-.891-3.133-1.889-3.133-2.218 0-.328.378-.378.84-.11l21.01 12.21c20.559 11.95 24.085 13.754 24.096 12.33.003-.443-4.913-11.29-10.925-24.104-6.696-14.273-12.667-25.38-15.413-28.672-2.465-2.955-10.532-12.322-17.927-20.815-18.207-20.91-17.264-19.407-20.267-32.286-12.001-51.461-14.213-58.97-18.983-64.454-2.14-2.46-3.01-2.801-4.66-1.822-2.047 1.215-10.376 10.771-68.858 79.001-17.652 20.594-36.919 42.99-42.815 49.77-6.296 7.239-12.533 15.792-15.116 20.728-5.818 11.121-27.064 59.93-27.064 62.176 0 2.469 3.032 3.358 5.237 1.536 1.691-1.398 1.714-1.293.266 1.258-1.733 3.053-21.535 30.86-30.525 42.867-7.332 9.792-11.953 11.449-11.953 4.287 0-2.453 15.249-49.97 19.621-61.143 1.081-2.762 2.798-4.523-20.763 21.29-25.826 28.291-53.315 57.02-114.723 119.89-23.713 24.277-25.742 27.202-21.386 30.818 1.609 1.335 7.053 2.995 10.626 3.24.918.064 13.271-2.427 27.452-5.535z"/><path fill="#fff" d="M375.388 519.486c11.19-10.16 51.304-45.328 70.371-61.696 11.9-10.215 17.974-14.718 19.54-14.488 1.635.24 4.37 4.261 9.752 14.34 24.893 46.615 25.475 47.62 27.555 47.62 2.249 0 3.442-1.683 25.221-35.574 7.426-11.555 14.183-21.01 15.017-21.01.833 0 7.21 3.438 14.171 7.64 23.477 14.17 46.842 27.278 47.957 26.905.61-.203-3.976-10.983-10.19-23.954l-11.296-23.584-19.875-23.178-19.875-23.178-2.409-10.942c-8.295-37.683-13.869-57.76-17.625-63.493-3.867-5.9-5.758-4.507-25.954 19.13-28.666 33.548-78.143 91.21-89.153 103.903-14.076 16.225-16.445 20.17-28.453 47.38-15.157 34.344-16.169 36.9-15.4 38.902 1.14 2.97 3.16 2.073 10.646-4.723z"/></g></svg>