<svg
  xmlns="http://www.w3.org/2000/svg"
  width="16"
  height="16"
  viewBox="0 0 148.13661 76.478165"
  preserveAspectRatio="xMidYMax"
>
  <path
    fill="rgb(129,188,233)"
    d="M21.888288 161.0985c-.304549-.30455-.500814-.75606-.436144-1.00335.06467-.2473 3.618417-4.76122 7.897215-10.03094l7.779633-9.5813.150485 6.15211c.122143 4.99345.240474 6.40129.628308 7.47525.994826 2.75478 3.1163 4.99377 5.68365 5.99848 1.245886.48757 2.034379.58088 5.048972.59754l3.572508.0197.07226-4.69719.07226-4.69718h-2.334852c-1.463155 0-2.453409-.11856-2.652408-.31756-.183814-.18381-.317556-1.06453-.317556-2.09116 0-1.69447.03247-1.78536.727733-2.03735.400253-.14507 3.57612-1.28832 7.057483-2.54056 3.481362-1.25223 6.371617-2.31866 6.42279-2.36983.05117-.0512-1.037369-.83843-2.418981-1.74945-1.381612-.91103-2.621993-1.79176-2.756401-1.95717-.156931-.19313.501973-2.95224 1.841318-7.7104 1.147134-4.0753 2.087327-7.45609 2.089318-7.51285.0052-.1479-7.075371 7.23603-10.308279 10.74995l-2.734758 2.97246-.8398-1.64931-.839799-1.64931.603531-1.06211c.331942-.58415.773151-1.78919.980464-2.67786.351167-1.50532.868512-2.25115 7.56857-10.91118 3.9554-5.11248 7.396322-9.40496 7.646491-9.53885.256534-.13729.630716-.14501.858197-.0177.221838.12415 1.757241 1.78443 3.412006 3.68951 1.654764 1.90508 3.097309 3.4308 3.205655 3.3905.227052-.0845 2.253481-2.61776 14.770501-18.465073 5.000769-6.33128 9.381339-11.77936 9.734609-12.10684.35326-.32748.8657-.59541 1.13875-.59541.34379 0 3.20342 3.55998 9.299933 11.57757 4.84191 6.367663 9.59015 12.601183 10.55163 13.852263l1.74815 2.27469 4.70605-4.85484c4.25643-4.39099 4.79062-4.85483 5.59115-4.85483 1.11855 0 .9431-.21814 9.25831 11.51141 3.61129 5.09414 7.24639 10.21473 8.07801 11.3791 1.08128 1.51393 1.5997 2.52924 1.81974 3.56392.16923.79579.59273 1.95685.94109 2.58015l.6334 1.13326-.68632 1.22795c-1.17387 2.10028-1.38485 3.66956-1.38933 10.334-.003 4.14964-.0978 6.19493-.29336 6.31579-.15908.0983-1.29311.24138-2.52008.31793l-2.23085.13918.0723 4.52719.0722 4.52719 3.57251-.0308c2.55604-.0221 3.89333-.15078 4.70009-.45239 2.78102-1.03969 5.02203-3.42616 5.9167-6.30074.42182-1.3553.4998-2.49294.51156-7.46348.0132-5.59608.0344-5.83483.4631-5.21715.24708.35601 3.39654 4.68994 6.99882 9.63095 3.60228 4.94101 6.5496 9.18622 6.5496 9.4338 0 .24757-.21777.64722-.48394.88809-.44785.4053-5.93382.43796-73.567203.43796H22.442015Zm74.241949-31.84405 3.69353-4.18579-2.89964-2.67642c-1.5948-1.47205-3.64153-3.39262-4.54828-4.26795l-1.64864-1.59151.87782-10.05595c.4828-5.53077.85298-10.090253.82263-10.132183-.0304-.0419-3.44903 3.828303-7.597047 8.600493-4.14802 4.77219-8.82645 10.15011-10.396512 11.95095l-2.854658 3.27424 2.048914 7.17865c1.126903 3.94826 2.106745 7.38798 2.177426 7.64382.172803.62547.242902.57174 5.370554-4.11672 2.340177-2.13972 4.34723-3.89041 4.460119-3.89041.112889 0 1.151364 2.03792 2.307714 4.52871l2.10247 4.5287 1.19503-1.30141c.65728-.71578 2.85713-3.18503 4.88857-5.48722zm28.169413-9.67843c.41588-4.43917.7405-8.08423.72137-8.10014-.0191-.0159-1.42464 1.49522-3.12335 3.35805l-3.08857 3.38696 1.17275 3.65466c.64502 2.01006 1.61808 5.05398 2.16236 6.76428l.98961 3.10963.20484-2.0511c.11266-1.12812.5451-5.68317.96099-10.12234zm-79.318201 38.77255c-2.396492-.74788-4.081813-2.45267-4.918494-4.97529-.340546-1.02676-.420163-2.57828-.420965-8.20354-.000914-6.41372-.03998-7.00123-.517558-7.78449-.599233-.98278-1.630624-1.58104-3.14245-1.82279l-1.070252-.17114.03421-2.44017.03421-2.44016 1.492378-.30825c1.401956-.28957 2.136773-.78655 2.800288-1.89392.130812-.21832.297382-3.55266.370155-7.40964.121606-6.44512.178094-7.11171.697917-8.23593 1.432754-3.09862 3.82199-4.55753 7.50562-4.58305 1.237147-.009 2.279128.0737 2.315515.18288.03639.10916.06616 1.27023.06616 2.58015v2.38167h-1.806282c-1.598846 0-1.87996.0783-2.44783.6821-.635519.67569-.643092.74717-.806004 7.60812-.186842 7.86874-.385707 8.91462-2.052107 10.79241l-1.025293 1.15536 1.005636 1.14247c1.76103 2.00063 1.907221 2.75466 2.037183 10.50749.126948 7.57301.112132 7.50683 1.844478 8.24004.468351.19824 1.391249.36044 2.050884.36044h1.199335v5.02797l-2.050884-.0177c-1.127986-.01-2.566121-.1785-3.195855-.37502zm98.065791.2456c-.10916-.11315-.19847-1.25762-.19847-2.54329v-2.33756l1.12468-.006c1.40556-.007 3.22222-.81105 3.67415-1.62563.25708-.46337.32495-2.00784.27138-6.17515-.0405-3.15024.0496-6.17537.20811-6.98436.36519-1.86428 1.24825-3.60004 2.30237-4.52556l.84662-.74335-1.13426-1.18378c-1.90462-1.98776-2.0687-2.77696-2.18561-10.51199-.059-3.90306-.21756-6.9802-.3761-7.29868-.45109-.90613-1.63949-1.43411-3.22797-1.43411h-1.45821l-.1807-1.92828c-.31387-3.34945-.40062-3.23557 2.44574-3.21046 2.15689.019 2.62019.11241 3.9619.79859 1.64776.84269 3.18958 2.59381 3.78087 4.29411.22093.63528.39468 3.35686.50133 7.85263.14397 6.06863.2215 6.97661.65715 7.69602.65939 1.08887 1.3339 1.47235 2.93314 1.66756l1.33628.1631.0432 2.58015.0432 2.58014h-.76561c-1.28419 0-2.84172.78018-3.41754 1.71188-.46029.74477-.53705 1.337-.55386 4.27354-.0107 1.87492-.10892 5.19521-.21819 7.37841-.17671 3.53081-.27463 4.11752-.88613 5.30939-.79084 1.54145-2.38834 3.08743-3.83208 3.70849-1.07262.46141-5.36749.83393-5.69545.494z"
    transform="translate(-21.439816 -85.174067)"
  />
</svg>
